<svg width="50" height="62" viewBox="0 0 50 62" fill="none" xmlns="http://www.w3.org/2000/svg">
<path d="M35.5203 33.7022H20.1633V42.4795H35.5203C35.9793 42.4795 36.4382 42.9775 36.4382 43.6934C36.5453 45.1401 36.0012 46.5656 34.924 47.661C33.8468 48.7564 32.3233 49.4332 30.6838 49.5448H18.7158C17.0763 49.4332 15.5528 48.7564 14.4756 47.661C13.3984 46.5656 12.8542 45.1401 12.9613 43.6934V39.3047H3.00582V43.6934C2.90126 47.4669 4.49476 51.1236 7.43836 53.8645C10.382 56.6055 14.4363 58.2081 18.7158 58.3221H30.6838C34.9632 58.2081 39.0176 56.6055 41.9612 53.8645C44.9048 51.1236 46.4983 47.4669 46.3937 43.6934C46.4505 41.0982 45.3378 38.5891 43.2995 36.7162C41.2612 34.8433 38.4637 33.7594 35.5203 33.7022Z" fill="white"/>
<path d="M30.6837 4.00909H18.7157C14.4331 4.11497 10.3733 5.71499 7.42771 8.4578C4.48215 11.2006 2.89179 14.862 3.00573 18.6378C2.93936 21.233 4.043 23.7455 6.07474 25.6243C8.10649 27.503 10.9004 28.5948 13.8438 28.66H29.2362V19.8828H13.8438C13.4202 19.8828 12.9612 19.3537 12.9612 18.6378C12.8542 17.1911 13.3983 15.7655 14.4755 14.6702C15.5527 13.5748 17.0762 12.8979 18.7157 12.7863H30.6837C32.3232 12.8979 33.8467 13.5748 34.9239 14.6702C36.0011 15.7655 36.5452 17.1911 36.4382 18.6378V23.0264H46.3937V18.6378C46.4982 14.8643 44.9047 11.2076 41.9611 8.46659C39.0175 5.7256 34.9631 4.1231 30.6837 4.00909Z" fill="white"/>
</svg>
