<svg width="70" height="66" viewBox="0 0 70 66" fill="none" xmlns="http://www.w3.org/2000/svg">
<path d="M51.0713 30.3293C50.7348 29.3672 50.2786 28.047 49.6879 26.1451C49.0971 24.2432 48.5662 22.3487 48.0876 20.4766L47.9979 20.1186L36.9528 16.7996V52.041L47.5716 48.1328L47.6912 47.8941C48.5213 46.1488 49.2841 44.3289 49.9346 42.4867C51.333 38.6157 52.036 36.669 51.9986 34.424C51.9481 33.0134 51.6336 31.6246 51.0713 30.3293ZM47.4894 30.665C47.9319 31.8771 48.1842 33.1501 48.2372 34.439C48.2372 36.3111 47.8109 38.0414 46.9135 41.1516L44.7972 41.532C45.4553 38.2428 45.7843 36.4453 45.7694 34.4315C45.7432 33.0916 45.5702 31.7585 45.2534 30.4561C45.0664 29.494 44.8122 28.1738 44.5056 26.257C44.2289 24.6683 44.0345 22.7887 43.87 21.2747C43.8326 20.8794 43.7952 20.5288 43.7578 20.1932L44.9992 20.5661C45.2235 21.6103 45.6348 23.2586 46.0685 24.9965L46.4274 26.4882C46.8387 28.3379 47.2127 29.6581 47.4894 30.665ZM38.8447 49.9527C38.9942 49.5201 39.1139 49.08 39.2186 48.6474C39.2859 48.4013 39.3457 48.1477 39.413 47.9016L39.5028 47.5883C39.8542 46.3502 40.2132 45.0823 40.4899 43.7994L43.4811 43.2848C43.0698 45.2762 42.5838 47.5361 42.2996 48.6772L38.8447 49.9527ZM42.8978 21.3866C43.0623 22.8783 43.2642 24.81 43.5409 26.4136C43.8774 28.3826 44.1392 29.7326 44.2887 30.6351C44.5868 31.882 44.7498 33.1573 44.7748 34.439C44.7748 36.4304 44.4457 38.2503 43.7578 41.7036L40.7665 42.2331C41.5388 37.2318 41.5942 32.1464 40.9311 27.1296C40.7217 25.429 40.3927 23.7882 40.101 22.4084C39.9814 21.8266 39.8543 21.2523 39.7271 20.6705L39.6 20.0739C39.6 19.9471 39.5402 19.8128 39.5102 19.6562C39.4803 19.4996 39.413 19.149 39.3457 18.9103L42.7184 19.9247C42.7931 20.2976 42.838 20.8123 42.8978 21.3866ZM39.4055 28.3901C39.4055 28.308 39.4056 28.1439 39.3532 27.9277C39.3009 27.4652 39.2186 27.0699 38.7998 24.0343C38.7998 24.0343 38.6727 23.0945 38.3661 21.6849C38.3287 21.5059 38.2988 21.3493 38.2614 21.2001V18.597C38.4463 18.9939 38.5698 19.4164 38.6278 19.8501C38.6278 19.9918 38.6802 20.1335 38.7101 20.2752L38.8821 21.0211C38.9943 21.5357 39.1065 22.0503 39.2111 22.565C39.5028 23.9299 39.8243 25.5484 40.0337 27.2191C40.7015 32.2544 40.631 37.3598 39.8244 42.3748L38.2614 42.6508V40.7712L39.1214 40.6146C39.3095 40.2465 39.4141 39.8416 39.428 39.4287C39.6224 38.2055 39.6448 37.7654 39.6448 37.7654C39.8019 35.4757 39.8393 35.8039 39.8692 34.9312C39.8552 32.7432 39.7003 30.5583 39.4055 28.3901ZM39.5102 43.9784C39.2485 45.1121 38.9269 46.216 38.6203 47.3497L38.5306 47.6554C38.4558 47.909 38.3886 48.1701 38.3287 48.4013L38.2614 48.64V44.1649L39.5102 43.9784ZM43.3166 48.3043C43.6307 46.9767 44.0644 44.9256 44.4383 43.1206L46.405 42.7776C46.3302 43.0312 46.2629 43.2848 46.1881 43.5234C45.7395 45.1046 45.3132 46.5963 44.9019 47.7002L43.3166 48.3043ZM46.0236 47.3049C46.3676 46.2831 46.7116 45.0673 47.078 43.7845L47.4145 42.606L48.5736 42.4047C47.9903 43.9933 47.3323 45.567 46.6219 47.0886L46.0236 47.3049ZM47.8857 40.9726C48.7307 38.0414 49.1495 36.3409 49.1196 34.4315C49.0791 33.0562 48.8269 31.6953 48.3718 30.3964C48.1025 29.4343 47.7361 28.1589 47.265 26.2271L46.8911 24.7354C46.5321 23.2437 46.1433 21.8863 45.9488 20.8719L46.9135 21.1628C47.3697 22.9379 47.8857 24.7429 48.4091 26.5329C49.0074 28.4498 49.471 29.7774 49.8075 30.7619C50.3234 31.9258 50.6175 33.1752 50.675 34.4464C50.675 36.2066 50.1889 37.8624 49.1794 40.7488L47.8857 40.9726Z" fill="black"/>
<path d="M42.0453 33.6557C42.0453 34.6999 42.0453 35.1997 42.0453 35.4533C42.0117 37.0596 41.8692 38.6619 41.619 40.2491L43.1969 39.9955C43.4437 38.5038 43.5708 37.2433 43.6381 36.2662C43.7316 35.2746 43.7715 34.2787 43.7578 33.2828C43.7578 32.3579 43.6456 31.5002 43.4736 29.7922C43.4287 29.3745 43.339 28.5765 43.152 26.9878C43.0025 25.6751 42.995 25.5857 42.9352 25.071C42.7707 23.5793 42.2472 22.7141 42.1874 21.916L40.6918 21.4536C41.1776 23.3486 41.5299 25.2751 41.7462 27.2191C41.9481 29.4343 41.978 31.3436 42.0453 33.6557Z" fill="black"/>
<path d="M45.2683 22.6395L44.1765 22.3933C45.0087 26.3114 45.6377 30.2697 46.061 34.2524C46.1148 35.0172 46.1148 35.7848 46.061 36.5496C45.9754 37.6336 45.7775 38.7059 45.4702 39.7493L46.8761 39.533C47.299 37.3975 47.4472 35.217 47.3173 33.0441V32.604C47.2461 31.9573 47.098 31.3214 46.8761 30.7096C46.3638 28.9207 45.9888 27.0956 45.7544 25.2499C45.5482 24.3885 45.3859 23.5173 45.2683 22.6395Z" fill="black"/>
<path d="M35.2328 17.0307C33.8643 17.15 32.4809 17.3215 31.1423 17.5304C28.6918 17.9288 26.2653 18.4617 23.8736 19.1265C23.0885 19.3428 22.3032 19.574 21.5255 19.8127L21.1965 19.9171L21.0918 20.2527C20.2991 22.8632 19.499 25.5483 18.7138 28.2334C17.106 33.7303 16.919 34.6104 17.0237 36.0872C17.1444 37.3694 17.457 38.6265 17.951 39.8164C18.2502 40.6816 18.6988 41.86 19.1924 43.5457C19.6859 45.2313 20.2543 46.999 20.7329 48.707L20.8376 49.0948L35.9432 52.0782V17.0232L35.2328 17.0307ZM34.6271 50.415L21.9144 47.9164C21.4582 46.3203 20.9796 44.7018 20.4637 43.1056C19.9477 41.5095 19.5214 40.2341 19.2223 39.3764C18.7638 38.3029 18.4713 37.1662 18.3548 36.0051C18.2651 34.7297 18.4521 33.9018 19.9925 28.6138C20.7403 26.0704 21.4881 23.4972 22.236 20.9762C22.8865 20.7748 23.5521 20.5809 24.2102 20.4019C26.5519 19.7471 28.9286 19.2242 31.3292 18.8356C32.4136 18.6641 33.5128 18.5223 34.6121 18.4105L34.6271 50.415Z" fill="black"/>
<path d="M24.9879 22.2368C24.4121 22.4158 23.8363 22.5948 23.2754 22.7888L23.0287 22.8708L22.9538 23.1393C22.3706 25.2351 21.7798 27.3608 21.219 29.4641C20.0449 33.8199 19.9103 34.521 19.9851 35.692C20.0747 36.6982 20.3037 37.6871 20.6656 38.6306C20.8675 39.2646 21.1741 40.2268 21.5704 41.5693C21.9668 42.9118 22.3182 44.2991 22.6921 45.6565L22.7669 45.9773L33.797 48.3267V20.5288L33.2661 20.581C32.264 20.678 31.262 20.8122 30.2749 20.9763C28.4891 21.2917 26.7236 21.7126 24.9879 22.2368ZM32.8249 47.0363L23.5446 45.0599C23.3128 44.1574 23.066 43.2549 22.7968 42.345L32.8174 44.2842L32.8249 47.0363ZM32.8249 42.7104L22.3556 40.7414C22.1911 40.1894 22.0416 39.7195 21.9144 39.3019L32.8324 41.2486L32.8249 42.7104ZM25.8254 25.2351L21.8022 34.1853L23.8437 26.2942L24.4345 24.0567L27.1191 23.3108L31.2395 22.565L25.8254 25.2351Z" fill="black"/>
<path d="M28.1811 19.0594C28.0613 19.0569 27.9446 19.0207 27.8445 18.955C27.7756 18.9111 27.7161 18.854 27.6694 18.787C27.6226 18.7201 27.5896 18.6446 27.5723 18.5649C27.5549 18.4852 27.5535 18.4028 27.5681 18.3226C27.5828 18.2423 27.6132 18.1657 27.6576 18.0972L30.2524 14.0995L42.3295 13.0031C42.4117 12.9949 42.4946 13.0031 42.5736 13.0273C42.6525 13.0515 42.7258 13.0911 42.7892 13.1439C42.8526 13.1967 42.9047 13.2616 42.9426 13.3347C42.9806 13.4079 43.0034 13.4878 43.01 13.5699C43.0182 13.6513 43.0103 13.7335 42.9865 13.8117C42.9627 13.89 42.9236 13.9628 42.8715 14.0259C42.8193 14.089 42.7551 14.1412 42.6826 14.1794C42.6102 14.2177 42.5308 14.2412 42.4491 14.2487L30.9704 15.2854L28.7269 18.7685C28.6689 18.8599 28.588 18.9347 28.4924 18.9857C28.3967 19.0366 28.2895 19.0621 28.1811 19.0594Z" fill="black"/>
</svg>
