<svg width="70" height="66" viewBox="0 0 70 66" fill="none" xmlns="http://www.w3.org/2000/svg">
<path d="M25.0554 49.3329C24.6403 49.3324 24.2361 49.2011 23.9006 48.9579C23.5961 48.7464 23.3577 48.4537 23.2128 48.1133C23.068 47.773 23.0224 47.399 23.0816 47.0341L24.6541 37.4477L17.6106 30.7143C17.3425 30.4596 17.152 30.1348 17.0608 29.7773C16.9695 29.4198 16.9812 29.0439 17.0946 28.6927C17.2078 28.3334 17.4224 28.0141 17.7128 27.7727C18.0032 27.5314 18.3572 27.3782 18.7326 27.3314L28.3805 25.8559L32.6312 17.1173C32.7917 16.7834 33.0436 16.5014 33.358 16.3038C33.6725 16.1063 34.0365 16.0011 34.4084 16.0005C34.7801 15.9921 35.1465 16.0898 35.4643 16.2819C35.7821 16.474 36.0381 16.7525 36.2021 17.0847L40.5837 25.7663L50.2561 27.0869C50.6283 27.1327 50.9798 27.2826 51.2697 27.5192C51.5597 27.7559 51.7761 28.0695 51.8942 28.4237C52.0142 28.7729 52.0326 29.1489 51.947 29.508C51.8615 29.8672 51.6757 30.195 51.411 30.4535L44.474 37.2928L46.1939 46.8548C46.2635 47.2175 46.2281 47.5925 46.0918 47.936C45.9555 48.2795 45.724 48.5774 45.4241 48.7949C45.126 49.0164 44.7712 49.1499 44.4004 49.1802C44.0297 49.2104 43.6578 49.1362 43.3274 48.966L34.6541 44.5071L26.0464 49.0965C25.742 49.2589 25.4007 49.3403 25.0554 49.3329ZM20.731 29.834L26.9064 35.7277C27.1392 35.9509 27.3145 36.2268 27.4171 36.532C27.5198 36.8371 27.5469 37.1625 27.496 37.4803L26.1118 45.8847L33.655 41.8659C33.94 41.7153 34.2578 41.6366 34.5804 41.6366C34.9031 41.6366 35.2209 41.7153 35.5059 41.8659L43.1144 45.7706L41.6075 37.3906C41.549 37.0741 41.5692 36.7483 41.6663 36.4414C41.7633 36.1345 41.9343 35.8559 42.1644 35.6298L48.2496 29.6383L39.7647 28.4726C39.4457 28.4287 39.142 28.3086 38.8796 28.1227C38.6172 27.9368 38.4039 27.6904 38.2578 27.4047L34.4084 19.7911L30.682 27.4618C30.541 27.7504 30.3317 28.0007 30.072 28.191C29.8124 28.3812 29.5101 28.5059 29.1913 28.5542L20.731 29.834Z" fill="black"/>
</svg>
