<svg width="70" height="66" viewBox="0 0 70 66" fill="none" xmlns="http://www.w3.org/2000/svg">
<path d="M54 33.4759C54 35.9646 53.93 38.4532 53.8716 40.9418C53.8914 43.0766 53.3521 45.1794 52.3075 47.0407C51.6181 48.2383 50.6685 49.2655 49.529 50.0461C48.3894 50.8268 47.089 51.3409 45.7241 51.5505C44.029 51.8196 42.3161 51.9603 40.5998 51.9712C36.923 51.9712 33.2461 51.9712 29.5692 51.9712C27.6192 52.0391 25.6713 51.7865 23.8029 51.2234C22.1455 50.7042 20.6656 49.7327 19.5294 48.4179C18.3933 47.1032 17.6459 45.4974 17.3713 43.7809C17.0847 42.0864 16.9441 40.3704 16.9511 38.6518C16.9511 34.9715 16.9511 31.2911 16.9511 27.6108C16.8876 25.713 17.1199 23.817 17.6398 21.9909C18.1289 20.3549 19.0512 18.8818 20.3088 17.7279C21.5665 16.5739 23.1127 15.7821 24.7834 15.4364C26.5862 15.0559 28.4282 14.8951 30.2696 14.9574C33.9464 14.9574 37.635 14.9574 41.3119 14.9574C43.258 14.8903 45.2019 15.1429 47.0665 15.7051C48.7239 16.2243 50.2038 17.1958 51.34 18.5106C52.4761 19.8253 53.2235 21.4311 53.4981 23.1476C53.7713 24.8557 53.9156 26.582 53.93 28.3118C53.9883 30.0293 53.93 31.7468 53.93 33.4759H54ZM20.2078 33.4175C20.2078 34.1185 20.2078 34.8312 20.2078 35.5323C20.2778 37.8106 20.2778 40.1006 20.4646 42.3789C20.5204 43.8041 21.0688 45.1658 22.0162 46.2312C22.9635 47.2967 24.2511 47.9999 25.6589 48.2207C27.3254 48.4972 29.0121 48.634 30.7014 48.6296C33.818 48.688 36.9463 48.6296 40.0395 48.6296C41.4403 48.6296 42.841 48.5362 44.2417 48.396C45.6656 48.3282 47.0229 47.7722 48.0856 46.8212C49.1483 45.8702 49.8518 44.5822 50.078 43.1734C50.3622 41.5339 50.4951 39.8717 50.4749 38.2078C50.5293 35.0377 50.5293 31.8714 50.4749 28.709C50.4725 27.1456 50.3633 25.5841 50.148 24.0356C50.0164 22.7794 49.4955 21.596 48.6582 20.651C47.8209 19.7061 46.7092 19.047 45.479 18.7662C44.6194 18.5271 43.733 18.3975 42.841 18.3807C39.4676 18.2989 36.0825 18.2521 32.7091 18.2638C30.5964 18.2638 28.4836 18.3339 26.3826 18.5092C25.4738 18.5579 24.5863 18.8024 23.7805 19.2258C22.9747 19.6492 22.2697 20.2417 21.7135 20.9627C20.7913 22.2124 20.285 23.7206 20.2661 25.274C20.3128 28.008 20.2778 30.7069 20.2078 33.4175Z" fill="black"/>
<path d="M44.9538 33.476C44.9585 34.7277 44.715 35.9678 44.2376 37.1247C43.7601 38.2815 43.0582 39.3321 42.1723 40.2155C41.2864 41.099 40.2343 41.7977 39.0768 42.2714C37.9193 42.745 36.6794 42.9841 35.4289 42.9748C32.9387 42.9663 30.5502 41.9842 28.7731 40.2381C26.9959 38.492 25.9705 36.1199 25.9158 33.6279C25.8972 32.3634 26.1293 31.1079 26.5985 29.9338C27.0677 28.7597 27.7647 27.6902 28.6494 26.7874C29.534 25.8846 30.5886 25.1662 31.7523 24.6738C32.916 24.1814 34.1656 23.9248 35.4289 23.9188C36.683 23.9141 37.9256 24.1583 39.0848 24.6373C40.2441 25.1162 41.297 25.8204 42.1827 26.7091C43.0684 27.5978 43.7693 28.6534 44.245 29.8149C44.7206 30.9764 44.9615 32.2207 44.9538 33.476ZM41.6154 33.476C41.6062 31.8396 40.9527 30.2729 39.7967 29.1158C38.6407 27.9587 37.0755 27.3046 35.4406 27.2954C33.8069 27.3046 32.2428 27.9591 31.0887 29.1165C29.9345 30.2739 29.2836 31.8407 29.2775 33.476C29.2867 35.1093 29.939 36.673 31.0928 37.8279C32.2466 38.9829 33.8089 39.6358 35.4406 39.645C37.0755 39.6358 38.6407 38.9816 39.7967 37.8245C40.9527 36.6674 41.6062 35.1007 41.6154 33.4643V33.476Z" fill="black"/>
<path d="M47.5569 23.5566C47.5599 23.8516 47.5046 24.1443 47.3939 24.4177C47.2832 24.6912 47.1195 24.94 46.9122 25.1497C46.7048 25.3594 46.458 25.5258 46.186 25.6394C45.914 25.753 45.6222 25.8115 45.3274 25.8115C44.7319 25.8084 44.1619 25.5695 43.742 25.147C43.322 24.7244 43.0862 24.1526 43.0862 23.5566C43.0893 22.9688 43.324 22.4059 43.7392 21.9902C44.1545 21.5746 44.7168 21.3397 45.3041 21.3367C45.5987 21.3304 45.8915 21.3833 46.1654 21.4922C46.4392 21.6011 46.6885 21.7639 46.8985 21.9708C47.1085 22.1777 47.2749 22.4246 47.388 22.697C47.5011 22.9693 47.5585 23.2616 47.5569 23.5566Z" fill="black"/>
</svg>
