<svg width="70" height="66" viewBox="0 0 70 66" fill="none" xmlns="http://www.w3.org/2000/svg">
<path d="M33.6878 57.7326H27.0942L28.7004 19.6284L28.9173 19.3881C29.548 18.719 30.088 17.9704 30.5235 17.1613C31.0949 16.0881 31.4805 14.9262 31.6639 13.7249V13.6368C31.7091 13.3914 31.839 13.1697 32.0313 13.0101C32.2235 12.8506 32.4659 12.7633 32.716 12.7637C33.0032 12.7921 33.2675 12.9327 33.4511 13.1548C33.6347 13.377 33.7226 13.6626 33.6957 13.9492L33.6878 57.7326ZM28.9494 55.9544H31.9048V18.3067C31.4877 19.0329 31.0009 19.7169 30.4512 20.3493L28.9494 55.9544Z" fill="black"/>
<path d="M42 57.7324H34.9486V9.83178C34.9215 9.53829 35.0104 9.24586 35.1965 9.01688C35.3825 8.7879 35.651 8.64049 35.9445 8.6062C36.1989 8.61155 36.4435 8.70468 36.6368 8.86972C36.8301 9.03475 36.96 9.26149 37.0046 9.51135V9.5995C37.2074 10.9218 37.6338 12.2002 38.2655 13.3803C38.7407 14.2696 39.3263 15.0958 40.0083 15.8394L40.225 16.0797V16.4081L42 57.7324ZM36.7315 55.9542H40.1367L38.5305 16.8326C37.8509 16.0574 37.261 15.2083 36.7717 14.3014L36.7315 55.9542Z" fill="black"/>
</svg>
