<svg width="97" height="59" viewBox="0 0 97 59" fill="none" xmlns="http://www.w3.org/2000/svg">
<g clip-path="url(#clip0_39_253)">
<path d="M40.6734 4.24734L39.2589 3.52745L37.8549 4.26791L38.1064 2.72529L36.9644 1.64546L38.536 1.40892L39.2275 0L39.9399 1.39864L41.522 1.60432L40.3905 2.70472L40.6734 4.24734Z" fill="black"/>
<path d="M48.521 4.30887L47.117 3.58898L45.713 4.32943L45.9645 2.78682L44.8224 1.70698L46.394 1.47045L47.0855 0.0615234L47.798 1.46016L49.3801 1.66585L48.2485 2.76625L48.521 4.30887Z" fill="black"/>
<path d="M56.379 4.37088L54.9646 3.65099L53.5711 4.39145L53.8225 2.84883L52.67 1.76899L54.2521 1.53246L54.9436 0.123535L55.6561 1.52218L57.2382 1.72786L56.1066 2.82826L56.379 4.37088Z" fill="black"/>
<path d="M64.2371 4.4324L62.8226 3.71251L61.4187 4.45297L61.6806 2.91035L60.5281 1.83052L62.0997 1.59398L62.8017 0.185059L63.5141 1.5837L65.0858 1.78938L63.9542 2.88978L64.2371 4.4324Z" fill="black"/>
<path d="M72.0951 4.49392L70.6807 3.77404L69.2767 4.51449L69.5387 2.97187L68.3861 1.89204L69.9578 1.65551L70.6597 0.246582L71.3722 1.64522L72.9438 1.8509L71.8123 2.95131L72.0951 4.49392Z" fill="black"/>
<path d="M79.9532 4.55593L78.5388 3.83605L77.1348 4.5765L77.3967 3.03389L76.2442 1.95405L77.8158 1.71752L78.5073 0.308594L79.2303 1.70723L80.8019 1.91292L79.6703 3.01332L79.9532 4.55593Z" fill="black"/>
<path d="M21.4787 53.6519H22.3588V58.9585H21.4787V53.6519ZM23.1132 53.6519C23.5221 53.6443 23.9284 53.7177 24.3076 53.8679C24.6307 53.9962 24.9232 54.1888 25.1668 54.4335C25.3917 54.6638 25.5664 54.9368 25.6802 55.2357C25.7933 55.5315 25.8501 55.8452 25.8478 56.1612C25.8538 56.5399 25.8044 56.9174 25.7011 57.2822C25.6226 57.5587 25.5025 57.8221 25.3449 58.0638C25.2103 58.2578 25.0397 58.4253 24.842 58.5574C24.6774 58.6644 24.5018 58.7541 24.3181 58.8248C24.165 58.8772 24.0071 58.9151 23.8466 58.9379C23.742 58.9457 23.6369 58.9457 23.5323 58.9379H22.6627V58.3723H23.2389C23.4852 58.395 23.7332 58.3549 23.959 58.2558C24.1848 58.1567 24.3807 58.002 24.5277 57.8067C24.8229 57.3163 24.9616 56.7503 24.9258 56.1818C24.9244 55.9599 24.8962 55.739 24.842 55.5236C24.7885 55.3056 24.6805 55.1041 24.5277 54.9374C24.3568 54.7481 24.1408 54.6032 23.899 54.5158C23.565 54.3908 23.2083 54.3347 22.8513 54.3512H22.6417V53.693L23.1132 53.6519Z" fill="black"/>
<path d="M28.6244 53.6519H29.5254V58.9585H28.6244V53.6519ZM32.0085 53.6519V54.31H29.8188V53.6519H32.0085ZM31.7885 56.5725H29.8188V55.9761H31.7885V56.5725ZM29.8188 58.3106H32.0085V58.9585H29.8188V58.3106Z" fill="black"/>
<path d="M34.7955 57.992C34.8755 58.0375 34.9597 58.0754 35.047 58.1051L35.3823 58.208L35.7175 58.28H36.0319V58.9587H35.6547L35.2775 58.897C35.1517 58.8667 35.029 58.8254 34.9108 58.7736C34.8042 58.7266 34.7053 58.6642 34.6174 58.5885L34.7955 57.992ZM34.6698 55.0507C34.6684 54.8564 34.7076 54.6639 34.7851 54.4851C34.8515 54.3198 34.9512 54.1693 35.0784 54.0429C35.2044 53.9142 35.3536 53.8096 35.5185 53.7344C35.6881 53.6601 35.8683 53.6115 36.0528 53.5904V54.3411C35.9016 54.3997 35.7682 54.4953 35.6652 54.6188C35.5685 54.7315 35.5132 54.8727 35.508 55.0199C35.4986 55.185 35.555 55.3473 35.6652 55.4724C35.7753 55.5963 35.9065 55.7007 36.0528 55.7809V56.6036L35.5709 56.3568C35.41 56.2709 35.2619 56.1636 35.1308 56.038C34.9968 55.9185 34.8866 55.7755 34.806 55.6164C34.7062 55.4446 34.6589 55.2482 34.6698 55.0507ZM37.2054 54.4748C37.1743 54.4631 37.1459 54.4456 37.1215 54.4234L36.9749 54.3514L36.7339 54.3H36.3567V53.5698C36.5782 53.5709 36.799 53.5915 37.0167 53.6315C37.2054 53.6644 37.3865 53.7306 37.5511 53.8269C37.5511 53.8886 37.4882 53.9606 37.4463 54.0326C37.4044 54.1046 37.373 54.1766 37.3415 54.2383C37.3101 54.3 37.2787 54.3617 37.2472 54.4028C37.2158 54.444 37.2158 54.4748 37.2054 54.4748ZM36.3567 55.9249L36.8491 56.1511C37.0142 56.2323 37.169 56.3324 37.3101 56.4494C37.4477 56.5722 37.5613 56.7185 37.6454 56.8813C37.7441 57.0758 37.7909 57.2916 37.7816 57.5086C37.7834 57.682 37.7477 57.8538 37.6768 58.0126C37.6129 58.1744 37.5208 58.3241 37.4044 58.4548C37.2752 58.5924 37.1227 58.7072 36.9539 58.7942C36.7667 58.886 36.5646 58.9452 36.3567 58.969V58.28C36.5381 58.2473 36.7004 58.1487 36.811 58.0038C36.9217 57.859 36.9727 57.6785 36.9539 57.4984C36.9577 57.4205 36.9447 57.3427 36.9158 57.27C36.8869 57.1974 36.8428 57.1315 36.7862 57.0767C36.6599 56.953 36.5151 56.8489 36.3567 56.7682V55.9249Z" fill="black"/>
<path d="M40.2333 53.6521H41.1134V58.9587H40.2333V53.6521ZM41.8574 53.6521C42.2697 53.6433 42.6796 53.7168 43.0623 53.868C43.3853 53.9963 43.6778 54.1889 43.9214 54.4337C44.143 54.6645 44.3142 54.9375 44.4243 55.2358C44.5374 55.5317 44.5943 55.8454 44.5919 56.1614C44.6009 56.5395 44.555 56.9169 44.4557 57.2824C44.3738 57.5593 44.2502 57.8228 44.089 58.0639C43.9544 58.2546 43.7879 58.4215 43.5966 58.5576C43.4273 58.6628 43.2484 58.7523 43.0623 58.825C42.9098 58.8796 42.7517 58.9176 42.5908 58.9381C42.4862 58.9465 42.381 58.9465 42.2764 58.9381H41.4068V58.3725H41.9831C42.2293 58.3952 42.4774 58.355 42.7032 58.2559C42.929 58.1568 43.1248 58.0021 43.2718 57.8068C43.572 57.3185 43.7111 56.7509 43.6699 56.182C43.6738 55.9598 43.6456 55.7382 43.5861 55.5238C43.5323 55.308 43.4283 55.1074 43.2823 54.9376C43.1095 54.7504 42.8941 54.6059 42.6536 54.5159C42.3196 54.3909 41.9629 54.3349 41.6059 54.3514H41.3859V53.6932L41.8574 53.6521Z" fill="black"/>
<path d="M47.3789 53.6519H48.2695V58.9585H47.3789V53.6519ZM50.7632 53.6519V54.31H48.5733V53.6519H50.7632ZM50.5327 56.5725H48.5733V55.9761H50.5327V56.5725ZM48.5733 58.3106H50.7632V58.9585H48.5733V58.3106Z" fill="black"/>
<path d="M57.8878 53.6519V58.3106H60.3709V58.9585H56.9867V53.6519H57.8878Z" fill="black"/>
<path d="M67.2022 58.9589H66.2907L64.8972 54.9893L63.4722 58.9589H62.5607L64.4467 53.6626H65.3268L67.2022 58.9589ZM65.3791 57.2826L65.5887 57.8585H64.1847L64.3942 57.2826H65.3791Z" fill="black"/>
<path d="M75.165 58.9585H74.2745V54.8962L73.5306 55.6161L72.9019 54.9991L74.2745 53.6519H75.165V58.9585Z" fill="black"/>
<path d="M79.9742 56.1718C80.0975 56.1883 80.2176 56.223 80.3304 56.2747C80.4536 56.3409 80.5665 56.424 80.6657 56.5215C80.7696 56.6344 80.8545 56.7628 80.9172 56.902C80.991 57.0671 81.0268 57.2462 81.0219 57.4265C81.0239 57.6399 80.9885 57.8521 80.9172 58.0538C80.8526 58.2122 80.7604 58.3584 80.6448 58.4857C80.5394 58.598 80.4154 58.6919 80.278 58.7634C80.1567 58.8322 80.0263 58.8842 79.8904 58.9177C79.7782 58.9543 79.6622 58.9784 79.5446 58.9897H79.2932C78.9663 58.9954 78.6398 58.9678 78.3188 58.9074C78.1459 58.8764 77.9794 58.8173 77.8263 58.7326L78.0254 58.1155L78.1511 58.1978L78.3188 58.2801C78.4164 58.3153 78.5188 58.3361 78.6226 58.3418C78.804 58.3549 78.9861 58.3549 79.1674 58.3418C79.3063 58.3538 79.4462 58.3351 79.5767 58.287C79.7073 58.239 79.8252 58.1628 79.9218 58.0641C80.0938 57.8794 80.1842 57.6353 80.1733 57.3853C80.1772 57.1511 80.0996 56.9225 79.9532 56.7374C79.8699 56.6453 79.7661 56.5733 79.6498 56.5269C79.5335 56.4805 79.4079 56.4611 79.2827 56.47H78.5388V55.8839H79.3665C79.4768 55.8835 79.585 55.8552 79.6808 55.8016C79.7853 55.7507 79.8699 55.6676 79.9218 55.565C79.9921 55.4064 80.0243 55.234 80.0161 55.0611C80.0261 54.9723 80.0261 54.8826 80.0161 54.7937C80.0047 54.6956 79.9647 54.6028 79.9009 54.5263C79.8206 54.4364 79.7202 54.366 79.6075 54.3207C79.4344 54.2692 79.254 54.2449 79.0731 54.2487C78.8929 54.2438 78.7129 54.2646 78.5388 54.3104L78.2349 54.4132L77.973 53.7653L78.4131 53.6522C78.6615 53.6048 78.9144 53.5841 79.1674 53.5905C79.3867 53.5906 79.605 53.6182 79.817 53.6728C80.0147 53.7262 80.1998 53.817 80.3619 53.9402C80.5145 54.0687 80.6392 54.2261 80.7286 54.4029C80.8199 54.6107 80.8663 54.8348 80.8648 55.0611C80.8659 55.2024 80.8374 55.3425 80.781 55.4725C80.7299 55.5896 80.659 55.6974 80.5714 55.7913C80.4932 55.8803 80.4013 55.9566 80.299 56.0176C80.2013 56.0882 80.0912 56.1405 79.9742 56.1718Z" fill="black"/>
<path d="M33.9469 15.9096V11.3229L21.5206 1.7998L21.5311 6.38652L33.9469 15.9096Z" fill="black"/>
<path d="M29.1273 25.6485V16.4853L25.4811 13.9966V25.6485H29.1273Z" fill="black"/>
<path d="M96.6019 1.7998L84.1756 11.3229V15.9096L96.5914 6.38652L96.6019 1.7998Z" fill="black"/>
<path d="M92.6414 25.6485V13.9966L88.9952 16.4853V25.6485H92.6414Z" fill="black"/>
<path d="M52.9215 11.117V14.6958V18.2747H61.5758V14.6958H56.5571V11.117H65.222V7.53809H52.9215V11.117Z" fill="black"/>
<path d="M65.222 21.9258H52.911V25.5047H65.222V21.9258Z" fill="black"/>
<path d="M80.8438 7.53809H68.5328V11.117H80.8438V7.53809Z" fill="black"/>
<path d="M72.179 18.2747H77.1977V14.6958H68.5328V18.2747V23.4476V25.4941H80.8438V21.9255H72.179V18.2747Z" fill="black"/>
<path d="M49.5687 12.824V12.7726C49.5687 11.3925 49.0102 10.0689 48.0159 9.093C47.0217 8.1171 45.6732 7.56885 44.2671 7.56885H37.2368V25.5455H40.8829V18.8608L45.6397 25.5661H49.6316L44.3405 18.0381C45.7356 18.0191 47.0669 17.4611 48.0456 16.4851C49.0243 15.509 49.5716 14.1936 49.5687 12.824Z" fill="black"/>
<path d="M6.44362 25.4634H11.2318C12.9447 25.4123 14.5673 24.6978 15.7452 23.4761C16.9232 22.2544 17.5606 20.6248 17.5183 18.9433C17.5408 17.7875 17.0958 16.6701 16.2809 15.8355C15.466 15.0009 14.3475 14.5172 13.1701 14.4902H7.01989V18.3982H13.1701C13.3483 18.3982 13.5368 18.6245 13.5368 18.9433C13.5801 19.5877 13.3621 20.2228 12.9303 20.7102C12.4985 21.1976 11.888 21.4977 11.2318 21.5451H6.44362C5.7874 21.4977 5.17689 21.1976 4.74513 20.7102C4.31336 20.2228 4.09535 19.5877 4.1386 18.9433V16.979H0.157162V18.9433C0.114844 20.6248 0.752272 22.2544 1.93018 23.4761C3.1081 24.6978 4.73074 25.4123 6.44362 25.4634Z" fill="black"/>
<path d="M4.49483 12.1865H10.6555V8.27857H4.49483C4.32719 8.27857 4.1386 8.05232 4.1386 7.73351C4.09526 7.08797 4.31294 6.4517 4.74446 5.96269C5.17597 5.47368 5.7865 5.17138 6.44362 5.12135H11.2318C11.8889 5.17138 12.4995 5.47368 12.931 5.96269C13.3625 6.4517 13.5802 7.08797 13.5368 7.73351V9.6875H17.5183V7.73351C17.5606 6.05197 16.9232 4.42234 15.7452 3.20064C14.5673 1.97894 12.9447 1.2645 11.2318 1.21338H6.44362C4.73074 1.2645 3.1081 1.97894 1.93018 3.20064C0.752272 4.42234 0.114844 6.05197 0.157162 7.73351C0.131862 8.88831 0.574402 10.0058 1.38764 10.8407C2.20088 11.6755 3.31837 12.1596 4.49483 12.1865Z" fill="black"/>
<path d="M37.2473 47.2555H40.8829V30.8627L37.2473 29.248V47.2555Z" fill="black"/>
<path d="M47.2427 33.6086L43.9633 32.0454L41.7525 36.5087L41.763 36.519H41.7421L45.9749 47.2453H49.6735L45.5978 36.9201L47.2427 33.6086Z" fill="black"/>
<path d="M52.9005 32.8581V36.4473V40.0262H61.5549V36.4473H56.5362V32.8581H65.201V29.2896H52.9005V32.8581Z" fill="black"/>
<path d="M65.201 43.6768H52.89V47.2556H65.201V43.6768Z" fill="black"/>
<path d="M27.9119 42.2886L30.3636 47.2352H33.9992L31.558 42.2886H27.9119Z" fill="black"/>
<path d="M28.6977 36.4983L25.1458 29.3097V29.2994H25.1354L25.1144 29.2583H21.4787L21.4997 29.3097V47.2761H25.1458V40.0669H26.8222H30.4579L28.6977 36.4983Z" fill="black"/>
<path d="M80.8543 34.5344C80.8556 33.8501 80.7195 33.1723 80.4537 32.5398C80.1879 31.9073 79.7976 31.3324 79.3052 30.8481C78.8128 30.3638 78.2278 29.9796 77.5839 29.7174C76.94 29.4553 76.2498 29.3203 75.5527 29.3203H68.5328V47.297H72.1685V40.6226L76.9252 47.3278H80.9276L75.626 39.7998C77.0303 39.7809 78.3696 39.2158 79.3498 38.2286C80.33 37.2414 80.8711 35.9128 80.8543 34.5344Z" fill="black"/>
<path d="M93.7729 39.0903H89.2152V41.9905H93.7729C93.9091 41.9905 94.0454 42.155 94.0454 42.3915C94.0771 42.8695 93.9156 43.3406 93.596 43.7025C93.2763 44.0644 92.8241 44.2881 92.3375 44.3249H88.7857C88.2991 44.2881 87.8469 44.0644 87.5272 43.7025C87.2075 43.3406 87.0461 42.8695 87.0778 42.3915V40.9415H84.1232V42.3915C84.0922 43.6384 84.5651 44.8466 85.4387 45.7522C86.3123 46.6579 87.5156 47.1874 88.7857 47.2251H92.3375C93.6076 47.1874 94.8109 46.6579 95.6845 45.7522C96.5581 44.8466 97.031 43.6384 97 42.3915C97.0168 41.5341 96.6866 40.705 96.0817 40.0862C95.4767 39.4674 94.6465 39.1092 93.7729 39.0903Z" fill="black"/>
<path d="M92.3376 29.2793H88.7857C87.5147 29.3143 86.3098 29.8429 85.4356 30.7492C84.5615 31.6555 84.0895 32.8652 84.1233 34.1128C84.1036 34.9703 84.4311 35.8005 85.0341 36.4212C85.6371 37.042 86.4663 37.4028 87.3398 37.4243H91.908V34.5242H87.3398C87.2141 34.5242 87.0779 34.3494 87.0779 34.1128C87.0461 33.6348 87.2076 33.1638 87.5273 32.8019C87.847 32.4399 88.2991 32.2163 88.7857 32.1794H92.3376C92.8242 32.2163 93.2763 32.4399 93.596 32.8019C93.9157 33.1638 94.0772 33.6348 94.0454 34.1128V35.5629H97V34.1128C97.031 32.866 96.5581 31.6578 95.6845 30.7521C94.8109 29.8465 93.6076 29.317 92.3376 29.2793Z" fill="black"/>
<path d="M3.64614 36.4473H0V47.225H3.64614V36.4473Z" fill="black"/>
<path d="M10.9279 36.4473H7.2818V47.225H10.9279V36.4473Z" fill="black"/>
<path d="M18.1678 36.4473H14.5217V47.225H18.1678V36.4473Z" fill="black"/>
<path d="M18.1574 34.2566V29.2791H14.4693L9.85926 30.9143L9.54492 31.0274C9.0314 30.4481 8.39703 29.984 7.6848 29.6664C6.97256 29.3487 6.1991 29.1851 5.41681 29.1865C4.04512 29.1944 2.72593 29.705 1.71799 30.6183C0.710052 31.5315 0.0861189 32.7815 -0.0314331 34.1229V34.236H3.67758C3.75706 33.8393 3.97342 33.4815 4.29022 33.223C4.60701 32.9645 5.00486 32.8211 5.41681 32.8168C5.83164 32.8147 6.23405 32.9557 6.55382 33.2151C6.8736 33.4744 7.09046 33.8358 7.16655 34.236H10.886L14.4693 32.9711V34.2669L18.1574 34.2566Z" fill="black"/>
</g>
<defs>
<clipPath id="clip0_39_253">
<rect width="97" height="59" fill="white"/>
</clipPath>
</defs>
</svg>
