<svg width="70" height="66" viewBox="0 0 70 66" fill="none" xmlns="http://www.w3.org/2000/svg">
<path d="M53.5832 26.2806C53.3291 25.8415 52.9887 25.4581 52.5825 25.1533C52.1763 24.8485 51.7126 24.6286 51.2192 24.5067C51.7329 23.5499 52.1903 22.5639 52.589 21.554C52.6414 21.416 52.6655 21.2689 52.6599 21.1214C52.6542 20.974 52.6189 20.8291 52.556 20.6956C52.4932 20.562 52.4041 20.4423 52.294 20.3437C52.1839 20.2451 52.055 20.1696 51.9151 20.1217C51.7774 20.0711 51.631 20.0484 51.4844 20.0549C51.3378 20.0614 51.1939 20.0969 51.0613 20.1595C50.9286 20.2221 50.8098 20.3104 50.7117 20.4193C50.6136 20.5282 50.5383 20.6555 50.4901 20.7937C50.0208 21.9293 49.4784 23.0334 48.8662 24.0991C46.1428 24.0477 43.4609 24.77 41.1335 26.1815C39.6753 27.129 38.6811 28.385 36.7148 30.7649C36.3613 31.1836 36.041 31.5802 35.7427 31.9659L35.3892 31.1506C33.677 27.1621 32.8927 25.3441 32.0089 24.3415C29.9224 21.9706 27.0463 20.4326 23.9117 20.0114C23.4101 19.9725 22.9057 20.0333 22.4278 20.1903C21.95 20.3472 21.5081 20.5973 21.1279 20.9259C20.7419 21.3216 20.444 21.7939 20.2537 22.3123C20.0633 22.8306 19.9848 23.3831 20.0232 23.9338C20.0308 24.5035 20.0899 25.0715 20.2 25.6306C19.601 25.7063 19.0121 25.8467 18.4436 26.0493C17.4872 26.3568 16.6925 27.0304 16.2342 27.9223C16.0466 28.4414 15.9704 28.994 16.0103 29.5444C16.0503 30.0948 16.2056 30.6307 16.4662 31.1175C18.0536 34.0608 20.6669 36.3224 23.8122 37.4748C22.9396 38.0938 22.1619 38.8361 21.5035 39.6784C20.3988 41.1327 19.6697 42.0472 19.2941 42.587C18.7197 43.3693 18.1232 44.1626 18.9738 44.8567C19.1636 45.0242 19.4055 45.1214 19.6587 45.1322C20.2221 45.1322 20.6971 44.5813 21.0395 44.1736L20.9511 44.1075C21.2715 43.6668 21.9343 42.7964 23.3041 41.0446C24.3918 39.7193 25.8087 38.7012 27.4135 38.0918C28.01 38.0918 28.6618 38.0918 29.435 38.0918H30.5397C32.1962 38.1976 33.8594 38.064 35.4776 37.6951C35.7633 37.7324 36.0511 37.7509 36.3392 37.7502C37.5647 37.7087 38.7861 37.5872 39.9957 37.3866C44.2929 36.7696 46.2592 36.4942 47.4633 35.9102C50.2905 34.533 52.5258 32.1862 53.7599 29.2995C53.9445 28.8121 54.0241 28.2914 53.9937 27.7713C53.9632 27.2512 53.8234 26.7433 53.5832 26.2806ZM42.3266 28.1096C43.8985 27.1428 45.6778 26.5613 47.5185 26.4128C46.7784 27.5146 45.8836 28.8588 44.8121 30.2361C42.8568 32.7481 39.6091 33.7948 36.8474 34.2135C37.3224 33.5634 37.9521 32.8363 38.416 32.2193C40.2498 29.9826 41.1667 28.8588 42.3266 28.1096ZM33.4008 34.4889C32.738 34.4889 32.2409 34.4889 31.9979 34.4889C31.5781 34.3126 31.1694 34.1364 30.7938 33.9601C29.0033 33.3167 27.3173 32.4147 25.7896 31.2828C24.7357 30.2968 23.8808 29.1187 23.271 27.8121C24.4347 27.9062 25.5758 28.1852 26.6513 28.6384C27.546 29.0461 29.1147 30.4784 31.9537 33.0456C32.5613 33.6736 33.0363 34.1474 33.4008 34.4889ZM22.5861 22.5235C22.8663 22.3382 23.2011 22.2528 23.5361 22.2811H23.757C26.2898 22.6769 28.6056 23.9389 30.3077 25.8509C31.3139 27.4189 32.1437 29.0927 32.7822 30.842C30.0536 28.341 28.6949 27.14 27.5792 26.6222C25.9572 25.91 24.2137 25.5136 22.4425 25.4543C22.3051 24.9325 22.2309 24.3961 22.2215 23.8567C22.1737 23.3826 22.3036 22.9077 22.5861 22.5235ZM24.7291 35.4034C22.0542 34.4924 19.8167 32.6182 18.4546 30.1479C18.2104 29.7328 18.1279 29.2426 18.2226 28.7707C18.458 28.4309 18.8063 28.1851 19.2058 28.0765C19.7274 27.8975 20.269 27.7828 20.8186 27.735C21.5825 29.6889 22.7709 31.4499 24.2983 32.8913C25.5335 33.9018 26.9202 34.7123 28.4077 35.2932C27.9102 35.4261 27.4198 35.5842 26.9385 35.767C26.1896 35.7397 25.4472 35.6176 24.7291 35.4034ZM51.5175 28.4732C50.4786 30.8139 48.649 32.7168 46.3476 33.8499C45.2243 34.2523 44.0556 34.5151 42.8679 34.6322C44.3099 33.9013 45.5762 32.8677 46.5796 31.6023C47.8466 29.9823 49.0124 28.286 50.0703 26.523C50.1784 26.5387 50.2853 26.5607 50.3907 26.5891C50.8645 26.6635 51.2936 26.9109 51.5948 27.2833C51.7083 27.6768 51.681 28.0975 51.5175 28.4732Z" fill="black"/>
</svg>
