<svg width="70" height="66" viewBox="0 0 70 66" fill="none" xmlns="http://www.w3.org/2000/svg">
<path d="M34.9469 51.2817C31.3822 51.2784 27.8808 50.3419 24.7928 48.5659C21.7048 46.7898 19.1384 44.2363 17.35 41.1607C17.2768 41.0348 17.2293 40.8956 17.2103 40.7512C17.1913 40.6068 17.2011 40.4601 17.2393 40.3196C17.2775 40.1791 17.3432 40.0475 17.4327 39.9324C17.5222 39.8174 17.6336 39.7212 17.7606 39.6494C17.8861 39.5765 18.025 39.5293 18.169 39.5105C18.3129 39.4917 18.4593 39.5016 18.5994 39.5397C18.7395 39.5778 18.8706 39.6433 18.985 39.7325C19.0995 39.8216 19.1951 39.9326 19.2661 40.0589C20.8582 42.7916 23.1397 45.061 25.8838 46.6416C28.6278 48.2222 31.739 49.0588 34.9077 49.0683C37.9497 49.0751 40.9437 48.3132 43.6105 46.8537C46.2774 45.3942 48.53 43.2846 50.1583 40.7219C50.3169 40.4742 50.5675 40.2992 50.8551 40.2353C51.1427 40.1713 51.4441 40.2236 51.6932 40.3807C51.9399 40.5404 52.1133 40.791 52.1756 41.0777C52.2379 41.3645 52.1839 41.6642 52.0255 41.9115C50.2013 44.7824 47.6791 47.1468 44.6932 48.785C41.7073 50.4232 38.3547 51.2821 34.9469 51.2817Z" fill="black"/>
<path d="M50.5689 30.396C50.5498 29.7426 50.4878 29.0912 50.3831 28.4459C50.2678 27.7169 50.1013 26.9968 49.8846 26.2911C49.6137 25.4222 49.2703 24.5774 48.8581 23.7657C48.6821 23.4341 48.5061 23.1026 48.3106 22.7906C48.1151 22.4786 47.9587 22.2349 47.773 21.9618L47.4406 21.4938L47.1766 21.1525C46.7073 20.5594 46.1978 19.999 45.6515 19.4755C45.3713 19.2025 45.078 18.9392 44.7717 18.6857C44.1742 18.1948 43.5439 17.7453 42.8849 17.3401C41.5365 16.517 40.074 15.8961 38.5444 15.4973C37.8246 15.316 37.0928 15.1856 36.3546 15.1072C35.7575 15.037 35.157 15.0012 34.5558 15H34.067C33.2237 15.0256 32.3836 15.1169 31.5546 15.273C30.497 15.4762 29.4623 15.7833 28.4653 16.1896C27.7073 16.5091 26.9723 16.8804 26.2657 17.3011C25.9627 17.4864 25.6791 17.6814 25.3956 17.8764C25.1121 18.0714 24.7015 18.3737 24.418 18.6467C24.1345 18.9197 23.8217 19.1634 23.5285 19.4365C22.988 19.9626 22.4818 20.5228 22.0132 21.1136L21.7492 21.4548L21.4168 21.9229C21.2311 22.1959 21.0453 22.4689 20.8791 22.7516C20.7129 23.0344 20.5076 23.4049 20.3317 23.7267C19.9194 24.5384 19.5761 25.3832 19.3052 26.2521C19.0885 26.9578 18.9219 27.6778 18.8066 28.4069C18.6687 29.2384 18.6001 30.0798 18.6013 30.9225C18.6091 35.1567 20.3023 39.2145 23.3087 42.2039C26.3152 45.1933 30.3887 46.8697 34.634 46.8645C37.8998 46.8599 41.0862 45.8601 43.7664 43.999C46.4466 42.1378 48.4926 39.5042 49.6304 36.451C49.7379 36.1488 49.8455 35.8465 49.9334 35.5345C50.0775 35.0379 50.1917 34.5333 50.2756 34.0232C50.3726 33.5495 50.4444 33.0711 50.4907 32.5899C50.4907 32.4241 50.4907 32.2584 50.4907 32.0926C50.4907 31.6928 50.4907 31.3028 50.4907 30.903C50.5787 30.7373 50.5786 30.5715 50.5689 30.396ZM43.3933 36.4315C42.4289 37.2237 41.3598 37.8799 40.2161 38.3816C38.4493 39.1771 36.5333 39.5893 34.5949 39.5907C31.9072 39.5888 29.2788 38.8032 27.033 37.3307C24.7872 35.8582 23.0219 33.7629 21.9545 31.3028C23.448 33.2395 25.3686 34.8071 27.5675 35.8842C29.7663 36.9613 32.1843 37.5189 34.634 37.5139C34.8979 37.5139 35.1619 37.5139 35.4258 37.5139C37.3505 37.4188 39.2418 36.976 41.0079 36.2073L41.5554 35.9635C42.4937 35.5139 43.3845 34.9717 44.2145 34.345C45.2131 33.6005 46.1189 32.7396 46.9127 31.7806L47.0397 31.8293C46.5783 32.7782 46.0145 33.674 45.3583 34.5009C44.9825 34.9587 44.5776 35.3919 44.1461 35.7978C43.8723 35.9733 43.6377 36.2268 43.4324 36.4315H43.3933ZM27.302 25.4525C28.7291 26.1833 30.2582 26.6961 31.8381 26.9736C32.3153 28.1218 32.9291 29.2086 33.6662 30.2108C31.882 30.0967 30.138 29.6328 28.5338 28.8457C27.9811 27.7711 27.5672 26.6309 27.302 25.4525ZM27.1162 20.431C28.2272 21.0145 29.4014 21.4692 30.6161 21.7863C30.6463 22.3124 30.7051 22.8364 30.792 23.3562C30.8507 23.7462 30.9484 24.1362 31.0364 24.5262C29.5922 24.1466 28.2212 23.5305 26.9794 22.7029C26.9615 21.9431 27.0073 21.1832 27.1162 20.431ZM38.3098 24.4872C37.1011 24.8287 35.8511 25.0026 34.5949 25.004C34.2136 25.004 33.8324 25.004 33.4511 24.9455C33.2463 24.3073 33.0862 23.6557 32.9721 22.9954C32.9721 22.7224 32.9134 22.4494 32.8841 22.1861C33.4646 22.2623 34.0487 22.3079 34.634 22.3226C35.5116 22.3206 36.3877 22.2489 37.254 22.1081C37.5417 22.928 37.8947 23.7235 38.3098 24.4872ZM41.4088 28.4459C39.8772 29.3189 38.1909 29.8884 36.4426 30.123C35.6339 29.2409 34.9438 28.2576 34.3896 27.1978H34.5949C36.2816 27.1963 37.9575 26.9298 39.5611 26.4081C40.1182 27.1381 40.7363 27.8199 41.4088 28.4459ZM47.4406 26.0083L47.5286 26.2423C47.1758 27.2272 46.7065 28.1667 46.1306 29.0407C45.7982 28.8749 45.4658 28.6994 45.153 28.4947C46.0043 27.7518 46.7714 26.918 47.4406 26.0083ZM44.7424 30.825C43.7657 31.8919 42.6277 32.8 41.3697 33.5161C40.3704 33.1153 39.4221 32.5982 38.5444 31.9756C40.2142 31.5513 41.8028 30.8562 43.2467 29.9182C43.7291 30.2462 44.2283 30.5488 44.7424 30.825ZM34.634 32.4728C34.9859 32.4728 35.3378 32.4728 35.6898 32.4728C36.1821 32.9418 36.7046 33.3783 37.254 33.7794C37.7339 34.1321 38.2332 34.4576 38.7497 34.7545C37.7701 35.0554 36.7604 35.2484 35.7387 35.3298C34.6622 34.9157 33.6436 34.3651 32.7081 33.6916C32.0485 33.2222 31.4363 32.69 30.88 32.1024C32.112 32.3751 33.3723 32.4994 34.634 32.4728ZM46.3652 23.6974C45.5586 25.0024 44.5413 26.1654 43.3542 27.1393C42.7771 26.6468 42.2439 26.1053 41.7607 25.5208C43.1963 24.799 44.5146 23.8655 45.6711 22.7516C45.8862 23.0734 46.1013 23.3952 46.3065 23.7169L46.3652 23.6974ZM44.2634 21.0745C43.1509 22.1512 41.8655 23.0345 40.4605 23.6877C40.0744 22.9981 39.7474 22.2773 39.4829 21.5328C40.7122 21.149 41.8906 20.6187 42.9925 19.9533C43.4161 20.3123 43.8208 20.6931 44.2047 21.094L44.2634 21.0745ZM40.7733 18.6077C40.1428 18.9205 39.4892 19.1846 38.8181 19.3975C38.7058 18.8536 38.6274 18.3032 38.5835 17.7496C39.3172 17.9824 40.03 18.276 40.7147 18.6272L40.7733 18.6077ZM34.6535 17.1646C35.2321 17.169 35.81 17.208 36.3839 17.2816C36.4115 18.1564 36.5129 19.0272 36.687 19.885C36.0141 19.9898 35.3345 20.0452 34.6535 20.0507C34.0652 20.0464 33.4776 20.0073 32.8939 19.9337C32.9521 19.0181 33.0994 18.1103 33.3338 17.2231C33.7151 17.2036 34.1452 17.1841 34.634 17.1841L34.6535 17.1646ZM30.9582 17.6814C30.842 18.2742 30.7604 18.8732 30.7138 19.4755C29.9635 19.249 29.2342 18.9587 28.5338 18.6077C29.2931 18.2345 30.085 17.9309 30.8995 17.7009L30.9582 17.6814ZM23.5871 22.7516C23.9977 23.1319 24.4278 23.5024 24.8678 23.8534C24.8678 24.2337 24.9362 24.614 24.9949 25.004C25.0831 25.543 25.2005 26.0768 25.3468 26.6031C24.4162 25.741 23.6072 24.757 22.9419 23.6779C23.0885 23.3952 23.3036 23.0734 23.5285 22.7712L23.5871 22.7516ZM26.9794 30.4935C27.9003 32.0696 29.0877 33.4749 30.489 34.6472C28.4741 34.0077 26.6332 32.9157 25.1078 31.4552C23.5825 29.9947 22.4134 28.2046 21.6906 26.2228L21.7785 25.9888C23.1488 27.846 24.9022 29.3887 26.9207 30.513L26.9794 30.4935ZM34.6535 44.6317C31.6994 44.6294 28.8241 43.6806 26.4515 41.9251C24.0789 40.1696 22.3345 37.7004 21.4755 34.8812C22.9389 37.0169 24.9018 38.7651 27.1944 39.9746C29.487 41.1842 32.0404 41.8188 34.634 41.8235C38.5596 41.8261 42.3478 40.3815 45.2703 37.7674C45.632 37.4456 45.9839 37.1043 46.3163 36.7923C46.8578 36.2071 47.3576 35.5847 47.8121 34.93C47.6144 35.5635 47.3726 36.1826 47.0886 36.7826C47.0202 36.9386 46.942 37.0946 46.8638 37.2506C45.7001 39.4828 43.9442 41.3534 41.7876 42.6584C39.631 43.9635 37.1565 44.6528 34.634 44.6512L34.6535 44.6317Z" fill="black"/>
</svg>
