<svg width="70" height="66" viewBox="0 0 70 66" fill="none" xmlns="http://www.w3.org/2000/svg">
<path d="M34.7126 45.6231C30.644 45.6178 26.7436 44.0034 23.8667 41.1341C20.9898 38.2647 19.3712 34.3745 19.3659 30.3165V20.3901C19.3685 18.9614 19.9388 17.5919 20.9517 16.5817C21.9646 15.5714 23.3377 15.0026 24.7701 15H44.675C46.1075 15.0026 47.4805 15.5714 48.4934 16.5817C49.5063 17.5919 50.0765 18.9614 50.0791 20.3901V30.3165C50.0739 34.3779 48.4526 38.2711 45.5713 41.1411C42.6901 44.011 38.7846 45.6231 34.7126 45.6231ZM24.7602 17.432C23.9683 17.432 23.2089 17.7458 22.6489 18.3042C22.089 18.8627 21.7744 19.6201 21.7744 20.4099V30.3363C21.7744 33.7588 23.1376 37.0411 25.5639 39.4611C27.9903 41.8811 31.2812 43.2407 34.7126 43.2407C38.144 43.2407 41.4349 41.8811 43.8612 39.4611C46.2876 37.0411 47.6508 33.7588 47.6508 30.3363V20.4099C47.6508 19.6201 47.3361 18.8627 46.7762 18.3042C46.2163 17.7458 45.4569 17.432 44.665 17.432H24.7602Z" fill="black"/>
<path d="M34.7126 36.4311C32.8023 36.4284 30.9711 35.6704 29.6203 34.3232C28.2696 32.976 27.5097 31.1496 27.507 29.2443C27.5097 27.3391 28.2696 25.5127 29.6203 24.1655C30.9711 22.8183 32.8023 22.0602 34.7126 22.0576C36.6228 22.0602 38.454 22.8183 39.8047 24.1655C41.1555 25.5127 41.9155 27.3391 41.9181 29.2443C41.9155 31.1496 41.1555 32.976 39.8047 34.3232C38.454 35.6704 36.6228 36.4284 34.7126 36.4311ZM34.7126 24.5194C33.4447 24.522 32.2296 25.0262 31.334 25.9213C30.4384 26.8164 29.9354 28.0294 29.9354 29.294C29.9354 30.5576 30.4387 31.7695 31.3346 32.6631C32.2305 33.5566 33.4456 34.0586 34.7126 34.0586C35.9805 34.0586 37.1966 33.557 38.094 32.6637C38.9915 31.7704 39.497 30.5585 39.4997 29.294C39.5049 28.6631 39.385 28.0375 39.1469 27.4531C38.9088 26.8687 38.5572 26.337 38.1123 25.8886C37.6674 25.4402 37.1379 25.084 36.5545 24.8405C35.971 24.597 35.3451 24.471 34.7126 24.4697V24.5194Z" fill="black"/>
<path d="M34.7125 31.4877C35.9547 31.4877 36.9617 30.4833 36.9617 29.2443C36.9617 28.0054 35.9547 27.001 34.7125 27.001C33.4702 27.001 32.4632 28.0054 32.4632 29.2443C32.4632 30.4833 33.4702 31.4877 34.7125 31.4877Z" fill="black"/>
<path d="M34.7126 50.8244C31.1586 50.817 27.6686 49.8811 24.5901 48.1099C21.5117 46.3387 18.9521 43.794 17.1664 40.7293C17.0852 40.5923 17.0323 40.4405 17.0108 40.2828C16.9894 40.1251 16.9999 39.9647 17.0416 39.8111C17.0834 39.6575 17.1556 39.5138 17.2539 39.3884C17.3523 39.2631 17.4748 39.1587 17.6143 39.0815C17.7514 39.0014 17.903 38.9491 18.0604 38.9277C18.2178 38.9064 18.3779 38.9162 18.5315 38.9568C18.6851 38.9974 18.8291 39.0679 18.9552 39.1643C19.0813 39.2606 19.1871 39.3809 19.2664 39.5182C20.8329 42.2245 23.0837 44.4737 25.794 46.0413C28.5044 47.6089 31.5795 48.4401 34.7126 48.452C37.7158 48.4585 40.6718 47.7063 43.3048 46.2656C45.9379 44.825 48.1623 42.7427 49.7706 40.2131C49.8556 40.0788 49.9665 39.9627 50.0968 39.8714C50.2271 39.7802 50.3742 39.7157 50.5297 39.6815C50.6852 39.6473 50.846 39.6443 51.0027 39.6725C51.1594 39.7007 51.3089 39.7596 51.4426 39.8458C51.7124 40.0189 51.9026 40.2914 51.9716 40.6039C52.0406 40.9163 51.9828 41.2433 51.8108 41.5134C49.9787 44.3771 47.4506 46.7323 44.4612 48.3602C41.4719 49.988 38.1184 50.8357 34.7126 50.8244Z" fill="black"/>
</svg>
