<svg width="70" height="66" viewBox="0 0 70 66" fill="none" xmlns="http://www.w3.org/2000/svg">
<path d="M34.0716 38.0442C37.1669 38.0442 39.6762 35.5415 39.6762 32.4542C39.6762 29.367 37.1669 26.8643 34.0716 26.8643C30.9762 26.8643 28.467 29.367 28.467 32.4542C28.467 35.5415 30.9762 38.0442 34.0716 38.0442Z" fill="black"/>
<path d="M34.0716 17.1376C38.1419 17.1437 42.0436 18.7596 44.921 21.631C47.7984 24.5023 49.4166 28.3946 49.4207 32.4543C49.4166 36.5132 47.7982 40.4048 44.9205 43.2749C42.0429 46.145 38.1412 47.7592 34.0716 47.7633C30.0013 47.7592 26.0988 46.1452 23.2199 43.2753C20.3411 40.4054 18.7209 36.5139 18.7148 32.4543C18.731 28.397 20.3542 24.5105 23.2306 21.6416C26.1071 18.7727 30.0037 17.1538 34.0716 17.1376ZM34.0716 15C31.7735 15 29.4979 15.4515 27.3747 16.3287C25.2515 17.2058 23.3223 18.4915 21.6972 20.1122C20.0722 21.733 18.7832 23.6572 17.9037 25.7748C17.0243 27.8925 16.5716 30.1622 16.5716 32.4543C16.5716 34.7464 17.0243 37.0161 17.9037 39.1337C18.7832 41.2514 20.0722 43.1755 21.6972 44.7963C23.3223 46.4171 25.2515 47.7027 27.3747 48.5799C29.4979 49.4571 31.7735 49.9086 34.0716 49.9086C36.3697 49.9086 38.6453 49.4571 40.7685 48.5799C42.8917 47.7027 44.8209 46.4171 46.446 44.7963C48.071 43.1755 49.36 41.2514 50.2395 39.1337C51.1189 37.0161 51.5716 34.7464 51.5716 32.4543C51.5716 30.1622 51.1189 27.8925 50.2395 25.7748C49.36 23.6572 48.071 21.733 46.446 20.1122C44.8209 18.4915 42.8917 17.2058 40.7685 16.3287C38.6453 15.4515 36.3697 15 34.0716 15Z" fill="black"/>
<path d="M34.0716 44.0648C30.9855 44.0607 28.0269 42.8362 25.8447 40.6597C23.6625 38.4831 22.4347 35.5323 22.4307 32.4543C22.4327 29.3756 23.6598 26.4236 25.8425 24.2466C28.0251 22.0697 30.9849 20.8458 34.0716 20.8438C37.1577 20.8478 40.1163 22.0724 42.2985 24.2489C44.4807 26.4254 45.7085 29.3762 45.7126 32.4543C45.7064 35.5317 44.4781 38.4814 42.2963 40.6575C40.1145 42.8335 37.1571 44.0587 34.0716 44.0648ZM34.0716 22.8583C31.5212 22.8624 29.0764 23.8747 27.2729 25.6734C25.4695 27.4721 24.4546 29.9105 24.4505 32.4543C24.4546 34.9973 25.4698 37.435 27.2734 39.2325C29.0771 41.03 31.5219 42.0405 34.0716 42.0426C36.6206 42.0405 39.0647 41.0297 40.8671 39.232C42.6695 37.4343 43.683 34.9966 43.685 32.4543C43.683 29.9112 42.6698 27.4728 40.8675 25.6738C39.0653 23.8749 36.6213 22.8624 34.0716 22.8583Z" fill="black"/>
</svg>
