<svg width="70" height="66" viewBox="0 0 70 66" fill="none" xmlns="http://www.w3.org/2000/svg">
<path d="M36.5037 47.5158H33.5039C33.2944 47.5158 33.0871 47.4745 32.8937 47.3943C32.7003 47.3142 32.5247 47.1967 32.377 47.0487C32.2292 46.9007 32.1123 46.725 32.0328 46.5317C31.9534 46.3385 31.913 46.1314 31.914 45.9226V19.5857C31.914 19.1652 32.0815 18.7619 32.3797 18.4645C32.6778 18.1671 33.0822 18 33.5039 18H36.5037C36.9253 18 37.3297 18.1671 37.6279 18.4645C37.9261 18.7619 38.0936 19.1652 38.0936 19.5857V45.9226C38.0945 46.1314 38.0542 46.3385 37.9747 46.5317C37.8953 46.725 37.7783 46.9007 37.6306 47.0487C37.4828 47.1967 37.3072 47.3142 37.1138 47.3943C36.9204 47.4745 36.7131 47.5158 36.5037 47.5158ZM33.7963 45.6159H36.1887V19.8924H33.7963V45.6159Z" fill="black"/>
<path d="M28.5467 43.611H25.5469C25.1245 43.6091 24.7201 43.4403 24.4222 43.1417C24.1242 42.8431 23.957 42.4391 23.957 42.0178V23.4975C23.956 23.2887 23.9964 23.0816 24.0759 22.8884C24.1553 22.6951 24.2723 22.5194 24.42 22.3714C24.5677 22.2233 24.7433 22.1058 24.9367 22.0257C25.1301 21.9455 25.3375 21.9043 25.5469 21.9043H28.5467C28.9703 21.9043 29.3767 22.0721 29.6762 22.3709C29.9758 22.6697 30.1441 23.075 30.1441 23.4975V42.0178C30.1441 42.4404 29.9758 42.8456 29.6762 43.1444C29.3767 43.4432 28.9703 43.611 28.5467 43.611ZM25.8394 41.7111H28.2392V23.8042H25.8394V41.7111Z" fill="black"/>
<path d="M20.5972 39.1754H17.5974C17.1744 39.1734 16.7692 39.0049 16.47 38.7065C16.1709 38.4082 16.002 38.0041 16 37.5822V27.9256C16.002 27.5043 16.1711 27.101 16.4705 26.8038C16.7699 26.5067 17.175 26.3398 17.5974 26.3398H20.5972C21.0196 26.3398 21.4247 26.5067 21.7241 26.8038C22.0234 27.101 22.1926 27.5043 22.1946 27.9256V37.5822C22.1926 38.0041 22.0237 38.4082 21.7246 38.7065C21.4254 39.0049 21.0203 39.1734 20.5972 39.1754ZM17.8898 37.2755H20.2897V28.2098H17.8898V37.2755Z" fill="black"/>
<path d="M44.4381 43.611H41.4383C41.0147 43.611 40.6084 43.4432 40.3088 43.1444C40.0092 42.8456 39.8409 42.4404 39.8409 42.0178V23.4975C39.8409 23.075 40.0092 22.6697 40.3088 22.3709C40.6084 22.0721 41.0147 21.9043 41.4383 21.9043H44.4381C44.6476 21.9043 44.8549 21.9455 45.0483 22.0257C45.2417 22.1058 45.4173 22.2233 45.565 22.3714C45.7128 22.5194 45.8297 22.6951 45.9092 22.8884C45.9886 23.0816 46.029 23.2887 46.028 23.4975V42.0178C46.028 42.4391 45.8608 42.8431 45.5628 43.1417C45.2649 43.4403 44.8605 43.6091 44.4381 43.611ZM41.7308 41.7111H44.1307V23.8042H41.7308V41.7111Z" fill="black"/>
<path d="M52.4026 39.1754H49.4028C48.9798 39.1734 48.5746 39.0049 48.2755 38.7065C47.9763 38.4082 47.8074 38.0041 47.8054 37.5822V27.9256C47.8074 27.5043 47.9766 27.101 48.2759 26.8038C48.5753 26.5067 48.9805 26.3398 49.4028 26.3398H52.4026C52.825 26.3398 53.2302 26.5067 53.5295 26.8038C53.8289 27.101 53.998 27.5043 54 27.9256V37.5822C53.9981 38.0041 53.8291 38.4082 53.53 38.7065C53.2308 39.0049 52.8257 39.1734 52.4026 39.1754ZM49.6953 37.2755H52.0952V28.2098H49.6878L49.6953 37.2755Z" fill="black"/>
</svg>
