<svg width="70" height="66" viewBox="0 0 70 66" fill="none" xmlns="http://www.w3.org/2000/svg">
<path d="M44.7794 49.5207L34.9223 44.3909C34.8281 44.3417 34.7236 44.316 34.6176 44.316C34.5116 44.316 34.4071 44.3417 34.313 44.3909L24.5455 49.6745C24.4381 49.7313 24.3172 49.7569 24.1963 49.7484C24.0754 49.7399 23.9591 49.6976 23.8606 49.6263C23.7621 49.555 23.6852 49.4574 23.6384 49.3445C23.5916 49.2316 23.5767 49.1078 23.5955 48.9869L25.3877 37.9492C25.4055 37.8445 25.3977 37.737 25.3649 37.6361C25.3321 37.5352 25.2753 37.4439 25.1996 37.3701L17.1975 29.6166C17.1109 29.5323 17.0494 29.4253 17.0198 29.3077C16.9903 29.19 16.9938 29.0664 17.0301 28.9507C17.0665 28.835 17.1342 28.7318 17.2255 28.6529C17.3168 28.5739 17.428 28.5223 17.5469 28.5038L28.5063 26.8029C28.6111 26.79 28.7108 26.7499 28.7956 26.6865C28.8804 26.623 28.9474 26.5384 28.9901 26.4409L33.8201 16.3712C33.8725 16.2601 33.955 16.1663 34.0581 16.1006C34.1612 16.0349 34.2807 16 34.4026 16C34.5245 16 34.6438 16.0349 34.7469 16.1006C34.85 16.1663 34.9326 16.2601 34.985 16.3712L39.9673 26.3686C40.0147 26.4635 40.0844 26.5453 40.1703 26.6068C40.2562 26.6683 40.3558 26.7077 40.4602 26.7214L51.4374 28.2414C51.5577 28.257 51.6712 28.3067 51.7648 28.3845C51.8585 28.4623 51.9285 28.5652 51.9669 28.6814C52.0052 28.7976 52.0104 28.9223 51.9817 29.0413C51.9531 29.1603 51.8918 29.2688 51.8049 29.3542L43.9281 37.2344C43.8533 37.3086 43.7978 37.4002 43.7665 37.5012C43.7353 37.6023 43.7292 37.7095 43.7489 37.8135L45.7024 48.8241C45.7232 48.9428 45.711 49.0651 45.667 49.1773C45.6231 49.2895 45.5491 49.3871 45.4534 49.4594C45.3577 49.5316 45.244 49.5756 45.125 49.5864C45.006 49.5973 44.8863 49.5745 44.7794 49.5207Z" fill="black"/>
</svg>
